<svg xmlns="http://www.w3.org/2000/svg" xmlns:xlink="http://www.w3.org/1999/xlink" width="500" zoomAndPan="magnify" viewBox="0 0 375 374.999991" height="500" preserveAspectRatio="xMidYMid meet" version="1.0"><defs><clipPath id="98f10fb1a5"><path d="M 54.605469 146.515625 L 95.855469 146.515625 L 95.855469 187.765625 L 54.605469 187.765625 Z M 54.605469 146.515625 " clip-rule="nonzero"/></clipPath></defs><path fill="#ffffff" d="M 187.46875 -0.015625 C 83.921875 -0.015625 -0.015625 83.921875 -0.015625 187.46875 C -0.015625 291.015625 83.921875 374.953125 187.46875 374.953125 C 291.015625 374.953125 374.953125 291.015625 374.953125 187.46875 C 374.953125 83.921875 291.015625 -0.015625 187.46875 -0.015625 Z M 187.46875 52.484375 C 224.75 52.484375 254.964844 82.699219 254.964844 119.980469 C 254.964844 157.261719 224.75 187.476562 187.46875 187.476562 C 150.1875 187.476562 119.972656 157.253906 119.972656 119.980469 C 119.972656 82.707031 150.1875 52.484375 187.46875 52.484375 Z M 187.46875 329.964844 C 139.546875 329.964844 97.261719 306.238281 71.429688 269.972656 C 97.261719 233.703125 139.546875 209.976562 187.46875 209.976562 C 235.390625 209.976562 277.679688 233.703125 303.507812 269.972656 C 277.679688 306.238281 235.390625 329.964844 187.46875 329.964844 Z M 187.46875 329.964844 " fill-opacity="1" fill-rule="nonzero"/><g clip-path="url(#98f10fb1a5)"><path fill="#ffffff" d="M 75.09375 146.515625 C 86.410156 146.515625 95.585938 155.691406 95.585938 167.007812 C 95.585938 178.324219 86.410156 187.496094 75.09375 187.496094 C 63.777344 187.496094 54.605469 178.324219 54.605469 167.007812 C 54.605469 155.691406 63.777344 146.515625 75.09375 146.515625 Z M 75.09375 146.515625 " fill-opacity="1" fill-rule="evenodd"/></g></svg>