<svg width="75" height="75" viewBox="0 0 75 75" fill="none" xmlns="http://www.w3.org/2000/svg">
<path d="M37.5 65.625C44.0069 65.625 50.3124 63.3688 55.3423 59.2409C60.3722 55.113 63.8152 49.3688 65.0846 42.9869C66.354 36.6051 65.3714 29.9805 62.304 24.242C59.2367 18.5034 54.2745 14.006 48.263 11.5159C42.2514 9.02582 35.5624 8.69721 29.3357 10.5861C23.1091 12.4749 17.7299 16.4643 14.1149 21.8746C10.4999 27.2848 8.87265 33.7812 9.51043 40.2567C10.1482 46.7323 13.0116 52.7863 17.6126 57.3874" stroke="#47BA3D" stroke-width="6.25" stroke-linecap="round"/>
<path d="M50 31.2501L38.7564 44.7425C36.7077 47.2008 35.6834 48.43 34.3066 48.4925C32.9298 48.555 31.7984 47.4235 29.5356 45.1607L25 40.6251" stroke="#47BA3D" stroke-width="6.25" stroke-linecap="round"/>
</svg>
