<svg width="39" height="39" viewBox="0 0 39 39" fill="none" xmlns="http://www.w3.org/2000/svg">
<path fill-rule="evenodd" clip-rule="evenodd" d="M24.2856 4.16392L21.641 3.74835C15.3609 2.76147 12.2208 2.26803 10.1728 4.01936C8.12476 5.7707 8.12476 8.9493 8.12476 15.3065V17.5501H17.0675L13.1021 12.5932L16.1474 10.1569L22.6474 18.2819L23.622 19.5001L22.6474 20.7182L16.1474 28.8432L13.1021 26.4069L17.0675 21.4501H8.12476V23.6922C8.12476 30.0494 8.12476 33.228 10.1728 34.9794C12.2208 36.7307 15.3609 36.2373 21.641 35.2504L24.2856 34.8348C27.4304 34.3406 29.0029 34.0935 29.9388 32.999C30.8748 31.9045 30.8748 30.3128 30.8748 27.1294V11.8694C30.8748 8.68595 30.8748 7.09424 29.9388 5.99972C29.0029 4.90521 27.4304 4.65811 24.2856 4.16392Z" fill="white"/>
</svg>
